<?xml version="1.0" encoding="UTF-8" standalone="no"?>
<!-- Created with Inkscape (http://www.inkscape.org/) -->

<svg
   width="81.339676mm"
   height="78.557884mm"
   viewBox="0 0 81.339674 78.557885"
   version="1.1"
   id="svg5"
   xml:space="preserve"
   xmlns="http://www.w3.org/2000/svg"
   xmlns:svg="http://www.w3.org/2000/svg"><defs
     id="defs2" /><g
     id="layer1"
     transform="translate(-25.744061,-29.729556)"><rect
       style="fill:#3d5b5d;fill-opacity:1;fill-rule:evenodd;stroke:none;stroke-width:0.25;stop-color:#000000"
       id="rect1056"
       width="100.74674"
       height="97.583199"
       x="16.010077"
       y="20.093445"
       ry="14.114278" /><path
       id="path1774"
       style="fill:#ffffff;fill-opacity:1;stroke:none;stroke-width:0.25811px;stroke-linecap:butt;stroke-linejoin:miter;stroke-opacity:1"
       d="M 64.604767,29.733213 C 55.808798,29.873085 47.703374,34.092006 43.568614,41.468377 38.135175,51.161581 39.380563,62.758119 36.555922,75.428426 33.123983,90.82285 30.019698,88.209379 25.744061,108.28744 H 107.08374 C 104.10749,87.862645 97.849376,87.847364 95.6994,73.653763 94.189248,63.684116 95.96032,59.594033 92.474537,47.994921 86.65682,35.235157 75.220592,29.564404 64.604767,29.733213 Z m 21.159812,16.999805 c 3.173177,-0.02819 5.187162,2.331077 5.214015,4.47621 -0.04537,3.177632 -1.833342,4.761312 -4.560033,4.64344 -1.932875,-0.08361 -4.807235,-2.175545 -4.846357,-5.071268 2.696643,3.965708 8.057394,-1.032884 4.192375,-4.048382 z m -36.469885,2.997281 c 4.054367,0.01799 5.683714,2.372927 5.720685,4.652154 -0.04746,3.32365 -2.182353,4.853925 -5.036826,4.886608 -2.733878,0.03131 -5.028638,-2.275281 -5.069607,-5.304061 2.820545,4.147932 8.428367,-1.080637 4.385748,-4.234701 z m 21.879359,8.898059 c 4.826724,0.109537 4.643053,4.762524 1.91464,5.08828 0.158585,2.869537 4.342015,6.612242 8.490566,4.658794 4.150189,-1.954218 4.885433,1.303507 0.236114,2.992301 -1.597613,0.580306 -5.513728,0.867306 -7.86646,-0.750253 -2.891203,-1.987769 -3.38308,-1.560994 -5.545156,-0.06598 -3.183446,2.201247 -6.838474,0.785698 -8.056099,0.506671 -5.123284,-1.174013 -4.237704,-3.974731 -0.108305,-2.569453 5.548986,1.88838 8.707223,-1.790131 8.620033,-4.787433 -2.837697,0.184876 -3.486695,-4.869753 1.832064,-5.068777 0.16621,-0.0062 0.326901,-0.0077 0.482603,-0.0042 z M 46.804084,80.989561 c 10.95465,4.586458 34.18734,5.274151 43.202991,0.858477 -8.275862,9.731847 -40.237843,5.136718 -43.202991,-0.858477 z M 94.21977,92.27517 c -7.116806,10.83107 -42.847957,11.89926 -54.148882,0.242563 16.489767,6.138154 35.902794,9.090237 54.148882,-0.242563 z" /></g></svg>
