<?xml version="1.0" encoding="UTF-8" standalone="no"?>
<!-- Created with Inkscape (http://www.inkscape.org/) -->

<svg
   width="99.475777mm"
   height="96.073738mm"
   viewBox="0 0 99.475775 96.073738"
   version="1.1"
   id="svg5"
   xml:space="preserve"
   xmlns="http://www.w3.org/2000/svg"
   xmlns:svg="http://www.w3.org/2000/svg"><defs
     id="defs2" /><path
     style="fill:#85a5a5;fill-opacity:1;stroke:none;stroke-width:0.31566px;stroke-linecap:butt;stroke-linejoin:miter;stroke-opacity:1"
     d="M 47.525377,0.00447143 C 36.768193,0.17552973 26.855524,5.3351328 21.798848,14.356194 15.153928,26.210666 16.676998,40.392855 13.222553,55.888227 9.0254036,74.715105 5.2289642,71.518915 1.7574643e-8,96.073729 H 99.475773 C 95.835915,71.094871 88.182449,71.076182 85.553098,53.717872 83.706232,41.525318 86.589898,36.1751 81.305009,22.337945 75.185865,6.3165035 60.508184,-0.20197693 47.525377,0.00447143 Z"
     id="path1774" /><path
     style="fill:#1a1a1a;fill-opacity:1;stroke:none;stroke-width:0.31566px;stroke-linecap:butt;stroke-linejoin:miter;stroke-opacity:1"
     d="M 83.74356,76.491245 C 75.039938,89.737291 31.341906,91.04365 17.521242,76.787891 37.68769,84.294654 61.429189,87.904949 83.74356,76.491245 Z"
     id="path1973" /><path
     style="fill:#1a1a1a;fill-opacity:1;stroke:none;stroke-width:0.31566px;stroke-linecap:butt;stroke-linejoin:miter;stroke-opacity:1"
     d="m 25.755721,62.689313 c 13.397181,5.609089 41.810002,6.450115 52.83585,1.04989 -10.12111,11.901731 -49.20957,6.282038 -52.83585,-1.04989 z"
     id="path1971" /><path
     style="fill:#1a1a1a;fill-opacity:1;stroke:none;stroke-width:0.31566px;stroke-linecap:butt;stroke-linejoin:miter;stroke-opacity:1"
     d="m 57.900941,41.565092 c 0.193945,3.50935 7.060836,1.062539 9.910552,5.892371 2.076134,3.518729 -1.355165,4.588244 -3.148636,1.953207 -1.616817,-2.37549 -4.347927,-2.51189 -9.657379,-2.43438 -4.910171,0.09249 -8.835075,1.246355 -9.37448,3.455932 -0.400416,2.180027 -4.687733,3.668506 -2.859923,-2.474404 1.327667,-4.462031 10.064192,-2.745899 9.957562,-6.411501 -3.470411,0.226097 -4.264114,-5.95555 2.240554,-6.198949 4.286086,-0.190016 7.077783,5.442843 2.93175,6.217724 z"
     id="path1969" /><path
     style="fill:#1a1a1a;fill-opacity:1;stroke:none;stroke-width:0.31566px;stroke-linecap:butt;stroke-linejoin:miter;stroke-opacity:1"
     d="m 23.5528,30.83303 c 0.408717,2.432574 2.282697,4.614976 4.7286,5.148302 1.436556,0.300186 2.969615,0.123138 4.32063,-0.440656 1.494264,-0.619272 2.968449,-3.565836 2.968449,-3.565836 -2.670961,-1.107842 -3.428323,-1.634092 -4.527397,-2.143769 -0.757869,1.452176 -2.449365,2.20725 -4.024417,2.244959 -1.263689,0.08608 -2.542025,-0.37934 -3.465865,-1.243 z"
     id="path1967" /><path
     id="path2029"
     style="fill:#ffffff;fill-opacity:1;stroke:none;stroke-width:0.31566px;stroke-linecap:butt;stroke-linejoin:miter;stroke-opacity:1"
     d="m 23.5528,30.83303 c 1.104404,1.056531 2.720435,1.447204 4.206296,1.170041 1.485223,-0.190107 2.722833,-0.728103 3.268403,-2.161788 -4.198919,-1.843847 -5.887078,-3.546788 -6.004226,-3.499928 0,0 -1.83979,1.77181 -1.544451,3.978482 0.01844,0.171852 0.04289,0.343349 0.07398,0.513193 z" /><path
     id="path2032"
     style="fill:#1a1a1a;fill-opacity:1;stroke:none;stroke-width:0.296562px;stroke-linecap:butt;stroke-linejoin:miter;stroke-opacity:1"
     d="m 68.320395,27.248313 c 0.834212,2.406381 2.173043,4.417842 4.442502,4.836809 1.349638,0.282023 2.789942,0.115688 4.059215,-0.413994 1.403855,-0.581804 2.449535,-1.876338 2.788846,-3.350089 0.423968,-1.609099 -0.179719,-3.907353 -1.511814,-5.351427 -1.050829,0.664037 -1.01167,0.908087 -2.353715,1.546824 -0.712015,1.364309 -2.689378,3.864329 -4.169149,3.899734 -1.186997,0.08074 -3.255885,-1.167857 -3.255885,-1.167857 z" /><path
     id="path2034"
     style="fill:#ffffff;fill-opacity:1;stroke:none;stroke-width:0.296562px;stroke-linecap:butt;stroke-linejoin:miter;stroke-opacity:1"
     d="m 68.320395,27.248313 c 1.037608,0.992568 3.067533,1.320284 4.463501,1.059939 2.928442,-0.816415 3.211412,-2.404177 2.997118,-3.78654 -2.763899,1.301186 -4.163315,1.746335 -7.460621,2.726601 z" /></svg>
