<?xml version="1.0" encoding="UTF-8" standalone="no"?>
<!-- Created with Inkscape (http://www.inkscape.org/) -->

<svg
   width="99.475777mm"
   height="96.073738mm"
   viewBox="0 0 99.475775 96.073738"
   version="1.1"
   id="svg5"
   xml:space="preserve"
   xmlns="http://www.w3.org/2000/svg"
   xmlns:svg="http://www.w3.org/2000/svg"><defs
     id="defs2" /><path
     style="fill:#85a5a5;fill-opacity:1;stroke:none;stroke-width:0.31566px;stroke-linecap:butt;stroke-linejoin:miter;stroke-opacity:1"
     d="M 47.525377,0.00447143 C 36.768193,0.17552973 26.855524,5.3351328 21.798848,14.356194 15.153928,26.210666 16.676998,40.392855 13.222553,55.888227 9.0254036,74.715105 5.2289642,71.518915 1.7574643e-8,96.073729 H 99.475773 C 95.835915,71.094871 88.182449,71.076182 85.553098,53.717872 83.706232,41.525318 86.589898,36.1751 81.305009,22.337945 75.185865,6.3165035 60.508184,-0.20197693 47.525377,0.00447143 Z"
     id="path1774" /><path
     style="fill:#1a1a1a;fill-opacity:1;stroke:none;stroke-width:0.31566px;stroke-linecap:butt;stroke-linejoin:miter;stroke-opacity:1"
     d="M 83.74356,76.491245 C 75.039938,89.737291 31.341906,91.04365 17.521242,76.787891 37.68769,84.294654 61.429189,87.904949 83.74356,76.491245 Z"
     id="path1973" /><path
     style="fill:#1a1a1a;fill-opacity:1;stroke:none;stroke-width:0.31566px;stroke-linecap:butt;stroke-linejoin:miter;stroke-opacity:1"
     d="m 25.755721,62.689313 c 13.397181,5.609089 41.810002,6.450115 52.83585,1.04989 -10.12111,11.901731 -49.20957,6.282038 -52.83585,-1.04989 z"
     id="path1971" /><path
     style="fill:#1a1a1a;fill-opacity:1;stroke:none;stroke-width:0.31566px;stroke-linecap:butt;stroke-linejoin:miter;stroke-opacity:1"
     d="m 57.900941,41.565092 c 0.193945,3.50935 6.249324,7.517462 9.2426,2.775262 3.634688,-5.758379 4.206805,-0.518051 2.491846,2.101641 -2.760492,4.216802 -10.927736,4.342905 -13.590873,-0.05944 -1.516047,2.552392 -9.752506,4.739585 -13.604841,-0.254911 -1.587886,-2.718287 -1.038848,-8.071842 2.335257,-2.622838 3.257306,5.260379 9.470458,1.336029 9.363828,-2.329573 -3.470411,0.226097 -4.783633,-5.584466 1.721035,-5.827865 4.286086,-0.190016 6.187181,5.442843 2.041148,6.217724 z"
     id="path1969" /><path
     style="fill:#1a1a1a;fill-opacity:1;stroke:none;stroke-width:0.342238px;stroke-linecap:butt;stroke-linejoin:miter;stroke-opacity:1"
     d="m 36.800623,34.270853 c -0.77829,-2.558605 -3.097202,-4.644126 -5.801355,-4.876877 -1.586416,-0.122667 -3.21012,0.281237 -4.584217,1.075617 -1.520395,0.873984 -2.493512,4.673123 -2.493512,4.673123 3.566937,-1.556923 6.946029,-1.971854 12.879084,-0.871863 z"
     id="path1967" /><path
     style="fill:#1a1a1a;fill-opacity:1;stroke:none;stroke-width:0.31566px;stroke-linecap:butt;stroke-linejoin:miter;stroke-opacity:1"
     d="m 80.900521,28.716686 c -1.256324,-2.122762 -3.789863,-3.485062 -6.2639,-3.102941 -1.448385,0.236612 -2.815161,0.953229 -3.872969,1.96523 C 69.592135,28.694266 69.55,32.311246 69.55,32.311246 c 2.856247,-2.174317 5.79362,-3.284259 11.350521,-3.59456 z"
     id="path1419" /></svg>
