<?xml version="1.0" encoding="UTF-8" standalone="no"?>
<!-- Created with Inkscape (http://www.inkscape.org/) -->

<svg
   width="113.0575mm"
   height="144.61197mm"
   viewBox="0 0 113.05749 144.61197"
   version="1.1"
   id="svg5"
   xml:space="preserve"
   xmlns="http://www.w3.org/2000/svg"
   xmlns:svg="http://www.w3.org/2000/svg"><defs
     id="defs2" /><path
     style="fill:#85a5a5;fill-opacity:1;stroke:none;stroke-width:0.31566px;stroke-linecap:butt;stroke-linejoin:miter;stroke-opacity:1"
     d="M 55.095519,0.00474331 C 44.338335,0.17580161 34.425666,5.3354047 29.36899,14.356466 22.72407,26.210938 24.24714,40.393127 20.792695,55.888499 16.595545,74.715377 3.2251032,90.889844 0,144.61197 l 113.0575,-0.22265 C 110.97619,91.356405 95.752591,71.076454 93.12324,53.718144 91.276374,41.52559 94.16004,36.175372 88.875151,22.338217 82.756007,6.3167754 68.078326,-0.20170505 55.095519,0.00474331 Z"
     id="path1774" /><path
     style="fill:#4e6a6a;fill-opacity:1;stroke:none;stroke-width:0.31566px;stroke-linecap:butt;stroke-linejoin:miter;stroke-opacity:1"
     d="M 87.30598,74.932958 C 78.602358,88.179004 42.029165,89.485363 28.208501,75.229604 48.374949,82.736367 64.991609,86.346662 87.30598,74.932958 Z"
     id="path1973" /><path
     style="fill:#4e6a6a;fill-opacity:1;stroke:none;stroke-width:0.31566px;stroke-linecap:butt;stroke-linejoin:miter;stroke-opacity:1"
     d="M 91.891084,90.504904 C 82.8867,102.48187 50.719246,106.6348 32.570953,94.141318 c 22.725539,6.115892 39.435463,6.562442 59.320131,-3.636414 z"
     id="path1973-0" /><path
     style="fill:#4e6a6a;fill-opacity:1;stroke:none;stroke-width:0.31566px;stroke-linecap:butt;stroke-linejoin:miter;stroke-opacity:1"
     d="m 38.22419,62.466934 c 13.397181,5.609089 33.349255,6.450115 44.375103,1.04989 -10.12111,11.901731 -40.748823,6.282038 -44.375103,-1.04989 z"
     id="path1971" /><path
     style="fill:#1a1a1a;fill-opacity:1;stroke:none;stroke-width:0.31566px;stroke-linecap:butt;stroke-linejoin:miter;stroke-opacity:1"
     d="m 63.129541,35.342563 c 5.902926,0.13396 5.678303,5.824412 2.341542,6.222801 0.193945,3.50935 5.310143,8.086556 10.383685,5.697552 5.075547,-2.389945 5.974726,1.594148 0.28876,3.659487 -1.953828,0.709696 -6.743109,1.060687 -9.620424,-0.917535 -3.535847,-2.430976 -4.137397,-1.909044 -6.781545,-0.08069 -3.893251,2.692053 -8.363231,0.960883 -9.852346,0.619642 -6.265609,-1.43578 -5.182574,-4.860966 -0.132454,-3.142357 6.78623,2.309428 10.64865,-2.189272 10.54202,-5.854874 -3.470411,0.226097 -4.264114,-5.95555 2.240554,-6.198949 0.20327,-0.0076 0.399789,-0.0095 0.590208,-0.0051 z"
     id="path1969" /><path
     id="path1967"
     style="fill:#1a1a1a;fill-opacity:1;stroke:none;stroke-width:0.31566px;stroke-linecap:butt;stroke-linejoin:miter;stroke-opacity:1"
     d="m 31.122942,30.833302 c 0.408717,2.432574 2.282697,4.614976 4.7286,5.148302 1.436556,0.300186 2.969615,0.123138 4.32063,-0.440656 1.494264,-0.619272 2.607286,-1.997174 2.968449,-3.565836 0.451271,-1.712725 0.241613,-3.656258 -0.869045,-5.081612 -0.977188,-1.301689 -2.539425,-2.029297 -4.115492,-2.285991 1.26603,1.4308 1.296519,3.633146 0.43746,5.273033 -0.757869,1.452176 -2.429685,2.158051 -4.004737,2.19576 -1.263689,0.08608 -2.542025,-0.37934 -3.465865,-1.243 z" /><path
     id="path2029"
     style="fill:#ffffff;fill-opacity:1;stroke:none;stroke-width:0.31566px;stroke-linecap:butt;stroke-linejoin:miter;stroke-opacity:1"
     d="m 31.122942,30.833302 c 1.104404,1.056531 2.720435,1.447204 4.206296,1.170041 1.485223,-0.190107 2.91963,-1.111858 3.4652,-2.545543 0.637308,-1.575753 0.525905,-3.541179 -0.63846,-4.85027 -1.335883,-0.226758 -2.773864,-0.251836 -4.004009,0.398193 -1.964008,0.930599 -3.398344,3.107714 -3.103005,5.314386 0.01844,0.171852 0.04289,0.343349 0.07398,0.513193 z" /><path
     id="path2032"
     style="fill:#1a1a1a;fill-opacity:1;stroke:none;stroke-width:0.296562px;stroke-linecap:butt;stroke-linejoin:miter;stroke-opacity:1"
     d="m 75.890537,27.248585 c 0.38399,2.285393 2.144585,4.335751 4.442502,4.836809 1.349638,0.282023 2.789942,0.115688 4.059215,-0.413994 1.403855,-0.581804 2.449535,-1.876338 2.788846,-3.350089 0.423968,-1.609099 0.226995,-3.43504 -0.816464,-4.774155 -0.918064,-1.222932 -2.38578,-1.906517 -3.866489,-2.14768 1.189616,1.344252 1.217664,3.413333 0.41071,4.954006 -0.712015,1.364309 -2.282664,2.027555 -3.762435,2.06296 -1.186997,0.08074 -2.388868,-0.356552 -3.255885,-1.167857 z" /><path
     id="path2034"
     style="fill:#ffffff;fill-opacity:1;stroke:none;stroke-width:0.296562px;stroke-linecap:butt;stroke-linejoin:miter;stroke-opacity:1"
     d="m 75.890537,27.248585 c 1.037608,0.992568 2.55586,1.359643 3.951828,1.099298 1.395374,-0.178614 2.742968,-1.044662 3.255533,-2.391599 0.598683,-1.480402 0.494571,-3.326919 -0.59953,-4.556816 -1.255057,-0.213039 -2.606034,-0.236595 -3.761751,0.374105 -1.845173,0.874293 -3.19274,2.919681 -2.915252,4.99284 0.01713,0.161446 0.04071,0.322759 0.06917,0.482172 z" /></svg>
