<?xml version="1.0" encoding="UTF-8" standalone="no"?>
<!-- Created with Inkscape (http://www.inkscape.org/) -->

<svg
   width="113.0575mm"
   height="144.61197mm"
   viewBox="0 0 113.05749 144.61197"
   version="1.1"
   id="svg5"
   xml:space="preserve"
   sodipodi:docname="LongSealXmas.svg"
   inkscape:version="1.2 (dc2aedaf03, 2022-05-15)"
   inkscape:export-filename="LongSealXmas.png"
   inkscape:export-xdpi="276.24"
   inkscape:export-ydpi="276.24"
   xmlns:inkscape="http://www.inkscape.org/namespaces/inkscape"
   xmlns:sodipodi="http://sodipodi.sourceforge.net/DTD/sodipodi-0.dtd"
   xmlns="http://www.w3.org/2000/svg"
   xmlns:svg="http://www.w3.org/2000/svg"><sodipodi:namedview
     id="namedview13"
     pagecolor="#ffffff"
     bordercolor="#666666"
     borderopacity="1.0"
     inkscape:showpageshadow="2"
     inkscape:pageopacity="0.0"
     inkscape:pagecheckerboard="true"
     inkscape:deskcolor="#d1d1d1"
     inkscape:document-units="mm"
     showgrid="false"
     inkscape:zoom="3.1579048"
     inkscape:cx="182.39942"
     inkscape:cy="265.36582"
     inkscape:window-width="1920"
     inkscape:window-height="1017"
     inkscape:window-x="-8"
     inkscape:window-y="-8"
     inkscape:window-maximized="1"
     inkscape:current-layer="svg5" /><defs
     id="defs2" /><path
     style="fill:#f8fed8;fill-opacity:1;stroke:none;stroke-width:0.324321px;stroke-linecap:butt;stroke-linejoin:miter;stroke-opacity:1"
     d="M 21.834823,20.208445 C 31.971842,19.652085 32.000628,5.6601675 21.005915,5.2580155 10.011203,4.8558635 11.697805,20.764805 21.834823,20.208445 Z"
     id="path3401-2"
     sodipodi:nodetypes="zzz" /><path
     style="fill:#85a5a5;fill-opacity:1;stroke:none;stroke-width:0.254217px;stroke-linecap:butt;stroke-linejoin:miter;stroke-opacity:1"
     d="m 57.330693,27.299994 c -8.663291,0.137762 -16.646452,4.293045 -20.718842,11.55815 -5.351483,9.546992 -4.124879,20.968607 -6.906913,33.447795 -3.380174,15.162214 -14.148049,28.188311 -16.745384,71.453391 l 91.050786,-0.17931 C 102.33415,100.86999 90.073839,84.537548 87.956292,70.558045 86.468921,60.73878 88.791278,56.429985 84.535096,45.286242 79.607048,32.383385 67.786387,27.133731 57.330693,27.299994 Z"
     id="path1774" /><path
     style="fill:#4e6a6a;fill-opacity:1;stroke:none;stroke-width:0.266655px;stroke-linecap:butt;stroke-linejoin:miter;stroke-opacity:1"
     d="m 33.951957,43.413715 49.561893,-1.236021 1.447973,4.312068 c -9.747067,4.052496 -47.1657,4.840735 -51.992397,3.065578 z"
     id="path1971-4"
     sodipodi:nodetypes="ccccc" /><path
     style="fill:#4e6a6a;fill-opacity:1;stroke:none;stroke-width:0.254217px;stroke-linecap:butt;stroke-linejoin:miter;stroke-opacity:1"
     d="M 83.271367,87.643382 C 76.26191,98.311071 46.807714,99.363149 35.67725,87.882285 51.918286,93.92785 65.300502,96.835396 83.271367,87.643382 Z"
     id="path1973" /><path
     style="fill:#4e6a6a;fill-opacity:1;stroke:none;stroke-width:0.254217px;stroke-linecap:butt;stroke-linejoin:miter;stroke-opacity:1"
     d="m 86.963977,100.18424 c -7.251675,9.64563 -33.157712,12.99019 -47.773428,2.92858 18.301998,4.92544 31.759323,5.28506 47.773428,-2.92858 z"
     id="path1973-0" /><path
     style="fill:#4e6a6a;fill-opacity:1;stroke:none;stroke-width:0.254217px;stroke-linecap:butt;stroke-linejoin:miter;stroke-opacity:1"
     d="m 43.74338,77.603876 c 10.78941,4.517278 26.857799,5.194597 35.737458,0.84553 -8.151029,9.585051 -32.817037,5.059235 -35.737458,-0.84553 z"
     id="path1971" /><path
     style="fill:#1a1a1a;fill-opacity:1;stroke:none;stroke-width:0.254217px;stroke-linecap:butt;stroke-linejoin:miter;stroke-opacity:1"
     d="m 63.800887,55.759284 c 4.753918,0.107875 4.573017,4.690685 1.88576,5.011528 0.156192,2.826253 4.27652,6.512503 8.362493,4.58852 4.087588,-1.924741 4.811742,1.283846 0.232552,2.947164 -1.573513,0.571554 -5.430557,0.854226 -7.747802,-0.738936 -2.84759,-1.957784 -3.332049,-1.537447 -5.461512,-0.06499 -3.135427,2.168044 -6.735323,0.773847 -7.93458,0.499028 -5.046004,-1.156304 -4.173783,-3.914775 -0.106665,-2.530694 5.465286,1.859895 8.575883,-1.76313 8.490009,-4.715218 -2.794894,0.182086 -3.434104,-4.7963 1.804427,-4.99232 0.163704,-0.0061 0.321971,-0.0076 0.475324,-0.004 z"
     id="path1969" /><path
     id="path1967"
     style="fill:#1a1a1a;fill-opacity:1;stroke:none;stroke-width:0.254217px;stroke-linecap:butt;stroke-linejoin:miter;stroke-opacity:1"
     d="m 38.024394,52.127753 c 0.32916,1.959073 1.838368,3.716668 3.808175,4.146182 1.156928,0.241754 2.391578,0.09916 3.479616,-0.354882 1.203404,-0.49873 2.099776,-1.608422 2.390639,-2.871744 0.36343,-1.379342 0.194583,-2.944565 -0.699885,-4.092473 -0.786977,-1.048314 -2.045124,-1.634294 -3.314409,-1.841022 1.019597,1.152295 1.044152,2.925952 0.352309,4.246634 -0.61035,1.169509 -1.956745,1.737985 -3.225212,1.768353 -1.017712,0.06933 -2.04722,-0.3055 -2.791233,-1.001048 z" /><path
     id="path2029"
     style="fill:#ffffff;fill-opacity:1;stroke:none;stroke-width:0.254217px;stroke-linecap:butt;stroke-linejoin:miter;stroke-opacity:1"
     d="m 38.024394,52.127753 c 0.88943,0.850877 2.190901,1.165505 3.387538,0.942292 1.196124,-0.153102 2.351322,-0.895435 2.790695,-2.050052 0.513257,-1.26903 0.423539,-2.851886 -0.514181,-3.906161 -1.075854,-0.182619 -2.23393,-0.202816 -3.224626,0.320683 -1.581714,0.749458 -2.736855,2.502797 -2.499004,4.279939 0.01485,0.138401 0.03454,0.276516 0.05959,0.413299 z" /><path
     id="path2032"
     style="fill:#1a1a1a;fill-opacity:1;stroke:none;stroke-width:0.238836px;stroke-linecap:butt;stroke-linejoin:miter;stroke-opacity:1"
     d="m 74.077945,49.240804 c 0.309248,1.84054 1.727141,3.491793 3.577768,3.895321 1.086929,0.227127 2.246878,0.09317 3.269086,-0.333411 1.130593,-0.468554 1.972731,-1.511107 2.245995,-2.697992 0.341443,-1.295886 0.182809,-2.766406 -0.657538,-3.844863 -0.739362,-0.984887 -1.921387,-1.53541 -3.113874,-1.729631 0.958055,1.082592 0.980644,2.748927 0.330764,3.989705 -0.57342,1.098745 -1.838341,1.632891 -3.030075,1.661404 -0.955946,0.06503 -1.923872,-0.287149 -2.622126,-0.940533 z" /><path
     id="path2034"
     style="fill:#ffffff;fill-opacity:1;stroke:none;stroke-width:0.238836px;stroke-linecap:butt;stroke-linejoin:miter;stroke-opacity:1"
     d="m 74.077945,49.240804 c 0.835639,0.799364 2.058362,1.094987 3.182604,0.885319 1.123763,-0.143847 2.209047,-0.841318 2.621841,-1.926073 0.482149,-1.192241 0.398302,-2.679331 -0.482832,-3.66983 -1.010758,-0.17157 -2.098767,-0.19054 -3.029523,0.301286 -1.486007,0.704111 -2.571271,2.351364 -2.347795,4.020981 0.01379,0.130019 0.03279,0.259933 0.05571,0.388317 z" /><path
     style="fill:#ca0000;fill-opacity:1;stroke:none;stroke-width:0.324321px;stroke-linecap:butt;stroke-linejoin:miter;stroke-opacity:1"
     d="M 81.074972,32.900858 C 80.902221,26.89532 76.152611,16.902581 68.30171,10.154754 60.701476,3.6223731 35.92266,-4.3496531 23.219567,9.3412989 39.125486,19.567221 35.217331,26.455669 32.982442,40.265628 Z"
     id="path520"
     sodipodi:nodetypes="csccc" /><path
     style="fill:#f8fed8;fill-opacity:1;stroke:none;stroke-width:0.324321px;stroke-linecap:butt;stroke-linejoin:miter;stroke-opacity:1"
     d="M 32.511437,46.916493 C 50.678214,48.068327 68.321616,46.682452 85.63839,43.941761 89.165635,43.383512 86.949045,28.7854 82.284202,29.891072 63.226349,34.408206 46.053905,33.157823 32.17747,33.901401 24.352517,34.320706 28.490338,46.66154 32.511437,46.916493 Z"
     id="path3692"
     sodipodi:nodetypes="sssss"
     inkscape:export-filename=".\path3692.png"
     inkscape:export-xdpi="276.24"
     inkscape:export-ydpi="276.24" /></svg>
