<?xml version="1.0" encoding="UTF-8" standalone="no"?>
<!-- Created with Inkscape (http://www.inkscape.org/) -->

<svg
   width="101.29434mm"
   height="97.830109mm"
   viewBox="0 0 101.29434 97.830109"
   version="1.1"
   id="svg5"
   xml:space="preserve"
   inkscape:version="1.2 (dc2aedaf03, 2022-05-15)"
   sodipodi:docname="seal.svg"
   xmlns:inkscape="http://www.inkscape.org/namespaces/inkscape"
   xmlns:sodipodi="http://sodipodi.sourceforge.net/DTD/sodipodi-0.dtd"
   xmlns="http://www.w3.org/2000/svg"
   xmlns:svg="http://www.w3.org/2000/svg"><sodipodi:namedview
     id="namedview7"
     pagecolor="#ffffff"
     bordercolor="#666666"
     borderopacity="1.0"
     inkscape:showpageshadow="2"
     inkscape:pageopacity="0.0"
     inkscape:pagecheckerboard="true"
     inkscape:deskcolor="#d1d1d1"
     inkscape:document-units="mm"
     showgrid="false"
     inkscape:zoom="1.087256"
     inkscape:cx="210.62196"
     inkscape:cy="263.04752"
     inkscape:window-width="1920"
     inkscape:window-height="1017"
     inkscape:window-x="-8"
     inkscape:window-y="-8"
     inkscape:window-maximized="1"
     inkscape:current-layer="layer1" /><defs
     id="defs2" /><g
     inkscape:label="Layer 1"
     inkscape:groupmode="layer"
     id="layer1"
     transform="translate(-15.766726,-20.093444)"><path
       id="path1774"
       style="fill:#ffffff;fill-opacity:1;stroke:none;stroke-width:0.321431px;stroke-linecap:butt;stroke-linejoin:miter;stroke-opacity:1"
       d="M 64.160942,20.097998 C 53.2071,20.272183 43.113211,25.526112 37.964091,34.712093 31.197692,46.783283 32.748606,61.224744 29.231009,77.003396 24.957129,96.174459 21.091285,92.919838 15.766727,117.92355 H 117.06107 C 113.35467,92.488042 105.56129,92.469011 102.88387,74.793364 101.00324,62.377911 103.2088,57.284428 98.867867,42.839762 91.622918,26.949707 77.381095,19.887775 64.160942,20.097998 Z m 26.350846,21.170284 c 3.951636,-0.0351 6.459704,2.902949 6.493144,5.574337 -0.0565,3.957186 -2.283107,5.929382 -5.678724,5.782593 -2.407057,-0.10412 -5.98657,-2.709261 -6.03529,-6.315377 3.358197,4.938595 10.034075,-1.286277 5.22087,-5.041553 z m -45.416866,3.732589 c 5.049005,0.0224 7.078073,2.955067 7.124113,5.793445 -0.0591,4.139025 -2.717739,6.044716 -6.272486,6.085416 -3.404566,0.039 -6.262289,-2.833465 -6.313309,-6.605281 3.512496,5.165525 10.496057,-1.345744 5.461682,-5.27358 z m 27.246916,11.080977 c 6.010841,0.13641 5.782111,5.930891 2.38435,6.336564 0.19749,3.573507 5.40722,8.234391 10.573515,5.801713 5.168335,-2.433637 6.083953,1.62329 0.294039,3.726388 -1.989548,0.722669 -6.866384,1.080078 -9.796301,-0.93431 -3.600487,-2.475418 -4.213035,-1.943944 -6.905522,-0.08217 -3.964426,2.741268 -8.516124,0.978449 -10.032463,0.63097 -6.380153,-1.462029 -5.27732,-4.949833 -0.134875,-3.199805 6.910293,2.351648 10.843325,-2.229294 10.734745,-5.96191 -3.533856,0.23023 -4.342069,-6.064426 2.281515,-6.312276 0.206986,-0.0077 0.407098,-0.0096 0.600997,-0.0052 z M 41.993302,83.928817 C 55.635405,89.640449 84.567657,90.496851 95.795074,84.9979 85.488935,97.117214 45.685876,91.394784 41.993302,83.928817 Z m 59.047948,14.054252 c -8.862738,13.488211 -53.359638,14.818451 -67.432965,0.30207 20.535121,7.644001 44.710652,11.320291 67.432965,-0.30207 z"
       sodipodi:nodetypes="sssccscsccccccccccscsssscscssscccccc"
       inkscape:export-filename="QI\icon\seal.svg"
       inkscape:export-xdpi="276.24"
       inkscape:export-ydpi="276.24" /></g></svg>
