<?xml version="1.0" encoding="UTF-8" standalone="no"?>
<!-- Created with Inkscape (http://www.inkscape.org/) -->

<svg
   width="101.29434mm"
   height="97.830109mm"
   viewBox="0 0 101.29434 97.830109"
   version="1.1"
   id="svg5"
   xml:space="preserve"
   inkscape:version="1.2 (dc2aedaf03, 2022-05-15)"
   sodipodi:docname="seawl.svg"
   inkscape:export-filename="fav.svg"
   inkscape:export-xdpi="276.24"
   inkscape:export-ydpi="276.24"
   xmlns:inkscape="http://www.inkscape.org/namespaces/inkscape"
   xmlns:sodipodi="http://sodipodi.sourceforge.net/DTD/sodipodi-0.dtd"
   xmlns="http://www.w3.org/2000/svg"
   xmlns:svg="http://www.w3.org/2000/svg"><sodipodi:namedview
     id="namedview7"
     pagecolor="#ffffff"
     bordercolor="#666666"
     borderopacity="1.0"
     inkscape:showpageshadow="2"
     inkscape:pageopacity="0.0"
     inkscape:pagecheckerboard="true"
     inkscape:deskcolor="#d1d1d1"
     inkscape:document-units="mm"
     showgrid="false"
     inkscape:zoom="1.5376122"
     inkscape:cx="76.092009"
     inkscape:cy="176.2473"
     inkscape:window-width="1920"
     inkscape:window-height="1017"
     inkscape:window-x="-8"
     inkscape:window-y="-8"
     inkscape:window-maximized="1"
     inkscape:current-layer="svg5" /><defs
     id="defs2" /><path
     style="fill:#85a5a5;fill-opacity:1;stroke:none;stroke-width:0.31566px;stroke-linecap:butt;stroke-linejoin:miter;stroke-opacity:1"
     d="M 48.434664,0.8826614 C 37.67748,1.0537197 27.764811,6.2133228 22.708135,15.234384 16.063215,27.088856 17.586285,41.271045 14.13184,56.766417 9.9346908,75.593295 6.1382514,72.397105 0.90928719,96.951919 H 100.38506 C 96.745202,71.973061 89.091736,71.954372 86.462385,54.596062 84.615519,42.403508 87.499185,37.05329 82.214296,23.216135 76.095152,7.1946935 61.417471,0.67621304 48.434664,0.8826614 Z"
     id="path1774"
     sodipodi:nodetypes="sssccsss" /><path
     style="fill:#1a1a1a;fill-opacity:1;stroke:none;stroke-width:0.31566px;stroke-linecap:butt;stroke-linejoin:miter;stroke-opacity:1"
     d="M 84.652847,77.369435 C 75.949225,90.615481 32.251193,91.92184 18.430529,77.666081 38.596977,85.172844 62.338476,88.783139 84.652847,77.369435 Z"
     id="path1973"
     sodipodi:nodetypes="ccc" /><path
     style="fill:#1a1a1a;fill-opacity:1;stroke:none;stroke-width:0.31566px;stroke-linecap:butt;stroke-linejoin:miter;stroke-opacity:1"
     d="m 26.665008,63.567503 c 13.397181,5.609089 41.810002,6.450115 52.83585,1.04989 -10.12111,11.901731 -49.20957,6.282038 -52.83585,-1.04989 z"
     id="path1971"
     sodipodi:nodetypes="ccc" /><path
     style="fill:#1a1a1a;fill-opacity:1;stroke:none;stroke-width:0.31566px;stroke-linecap:butt;stroke-linejoin:miter;stroke-opacity:1"
     d="m 56.468686,36.220481 c 5.902926,0.13396 5.678303,5.824412 2.341542,6.222801 0.193945,3.50935 5.310143,8.086556 10.383685,5.697552 5.075547,-2.389945 5.974726,1.594148 0.28876,3.659487 -1.953828,0.709696 -6.743109,1.060687 -9.620424,-0.917535 -3.535847,-2.430976 -4.137397,-1.909044 -6.781545,-0.08069 -3.893251,2.692053 -8.363231,0.960883 -9.852346,0.619642 -6.265609,-1.43578 -5.182574,-4.860966 -0.132454,-3.142357 6.78623,2.309428 10.64865,-2.189272 10.54202,-5.854874 -3.470411,0.226097 -4.264114,-5.95555 2.240554,-6.198949 0.20327,-0.0076 0.399789,-0.0095 0.590208,-0.0051 z"
     id="path1969"
     sodipodi:nodetypes="ccsssccscscc" /><path
     id="path1967"
     style="fill:#1a1a1a;fill-opacity:1;stroke:none;stroke-width:0.31566px;stroke-linecap:butt;stroke-linejoin:miter;stroke-opacity:1"
     d="m 24.462087,31.71122 c 0.562721,3.099109 3.111814,5.326745 6.085433,5.292684 3.490925,-0.03997 6.101506,-1.911243 6.159544,-5.975954 -0.03934,-2.425268 -1.553238,-4.920559 -5.211835,-5.542523 0.01149,0.01327 0.02296,0.02649 0.03425,0.03986 0.02393,0.02835 0.04717,0.0571 0.07018,0.0859 0.02301,0.0288 0.04584,0.05778 0.06794,0.08702 0.0221,0.02924 0.04337,0.05849 0.06456,0.08815 0.02119,0.02966 0.04202,0.05922 0.06232,0.08927 0.02029,0.03005 0.04011,0.06052 0.05951,0.09095 0.0194,0.03044 0.03875,0.06128 0.05727,0.09208 0.01851,0.0308 0.03626,0.06149 0.0539,0.09264 0.01763,0.03114 0.03489,0.06285 0.05165,0.09432 0.01676,0.03147 0.03296,0.0631 0.04885,0.09488 0.01589,0.03178 0.03157,0.06337 0.0466,0.09545 0.01503,0.03207 0.02962,0.06422 0.04379,0.09657 0.01417,0.03235 0.02766,0.06508 0.04099,0.09769 0.01332,0.03261 0.02626,0.06541 0.03874,0.09825 0.01248,0.03284 0.02485,0.06575 0.03649,0.09881 0.01164,0.03307 0.02288,0.0661 0.03369,0.09937 0.01081,0.03327 0.02089,0.06648 0.03088,0.09994 0.01,0.03346 0.02003,0.06743 0.0292,0.101059 0.0092,0.03362 0.01747,0.06728 0.02583,0.101059 0.0084,0.03378 0.0166,0.06715 0.02414,0.10106 0.0075,0.03391 0.01459,0.06816 0.02133,0.102181 0.0067,0.03402 0.01314,0.06806 0.01909,0.102182 0.0059,0.03412 0.01168,0.06854 0.01684,0.102743 0.0052,0.0342 0.0097,0.06792 0.01403,0.102182 0.0044,0.03426 0.0082,0.069 0.01179,0.103304 0.0036,0.03431 0.0073,0.06841 0.01011,0.102744 0.0028,0.03433 0.0052,0.06896 0.0073,0.103305 0.0021,0.03434 0.0037,0.06841 0.0051,0.102743 0.0013,0.03433 0.0023,0.06844 0.0028,0.102744 -7.14e-4,0.05002 -0.0022,0.0996 -0.0039,0.14878 -0.0017,0.04918 -0.0035,0.09819 -0.0062,0.146536 -0.0027,0.04834 -0.0059,0.09622 -0.0095,0.143728 -0.0036,0.04751 -0.0078,0.09481 -0.01235,0.141483 -0.0046,0.04667 -0.0097,0.09284 -0.01516,0.138675 -0.0055,0.04584 -0.01154,0.09143 -0.01796,0.136429 -0.0064,0.045 -0.01343,0.08945 -0.02077,0.133623 -0.0073,0.04417 -0.01477,0.08803 -0.02302,0.131377 -0.0082,0.04335 -0.01724,0.08605 -0.02639,0.128569 -0.0091,0.04252 -0.0186,0.08463 -0.02863,0.126324 -0.01003,0.0417 -0.02053,0.0832 -0.03144,0.124078 -0.01091,0.04088 -0.02191,0.08121 -0.03369,0.121271 -0.01177,0.04006 -0.02443,0.07978 -0.03706,0.119024 -0.01263,0.03924 -0.02526,0.07779 -0.03874,0.116219 -0.01347,0.03843 -0.0278,0.07635 -0.04211,0.113972 -0.01431,0.03762 -0.02866,0.07492 -0.04379,0.111726 -0.01514,0.03681 -0.03065,0.07348 -0.0466,0.109481 -0.01595,0.036 -0.03265,0.07148 -0.04941,0.106673 -0.01676,0.03519 -0.03354,0.07004 -0.05109,0.104427 -0.01756,0.03439 -0.03556,0.06859 -0.0539,0.102182 -0.01834,0.03359 -0.03703,0.06658 -0.05614,0.09938 -0.01912,0.03279 -0.03907,0.06513 -0.05895,0.09713 -0.01988,0.03199 -0.04,0.06368 -0.06064,0.09488 -0.02064,0.0312 -0.0415,0.06167 -0.06288,0.09208 -0.02138,0.03041 -0.04301,0.06077 -0.06513,0.09039 -0.02212,0.02962 -0.04509,0.05876 -0.06793,0.08758 -0.02285,0.02883 -0.0455,0.05729 -0.06906,0.08534 -0.02356,0.02804 -0.0476,0.05583 -0.07186,0.08309 -0.02426,0.02726 -0.04915,0.05381 -0.07411,0.08028 -0.02496,0.02648 -0.05015,0.0529 -0.07579,0.0786 -0.02565,0.0257 -0.05172,0.05087 -0.07804,0.07579 -0.02632,0.02492 -0.05274,0.0494 -0.07972,0.07355 -0.02699,0.02415 -0.05433,0.04793 -0.08197,0.0713 -0.02764,0.02337 -0.05593,0.04645 -0.08422,0.06906 -0.02829,0.0226 -0.05698,0.04442 -0.0859,0.06625 -0.02892,0.02183 -0.05804,0.0435 -0.08759,0.06457 -0.02955,0.02107 -0.05911,0.04202 -0.08927,0.06232 -0.03016,0.0203 -0.06075,0.03997 -0.09151,0.05951 -0.03077,0.01954 -0.06184,0.03849 -0.0932,0.05727 -0.03136,0.01878 -0.06294,0.03756 -0.09488,0.05558 -0.03195,0.01802 -0.06405,0.03551 -0.09657,0.05277 -0.03252,0.01727 -0.06573,0.03402 -0.09881,0.05053 -0.03308,0.01651 -0.0663,0.03308 -0.09994,0.04884 -0.03364,0.01576 -0.06744,0.03102 -0.10162,0.04604 -0.03418,0.01501 -0.06859,0.02952 -0.103305,0.04379 -0.03472,0.01427 -0.06975,0.02802 -0.104989,0.04155 -0.03524,0.01352 -0.07092,0.02708 -0.106673,0.03986 -0.03576,0.01278 -0.07153,0.02501 -0.107797,0.03706 -0.03626,0.01204 -0.07272,0.02351 -0.10948,0.03481 -0.03676,0.0113 -0.07392,0.02256 -0.111165,0.03312 -0.03724,0.01057 -0.07457,0.02049 -0.112288,0.03032 -0.03771,0.0098 -0.07579,0.01953 -0.113972,0.02863 -0.03818,0.0091 -0.07646,0.01745 -0.115095,0.02583 -0.03863,0.0084 -0.0777,0.0165 -0.116779,0.02414 -0.03908,0.0076 -0.07839,0.01498 -0.117902,0.02189 -0.03951,0.0069 -0.07909,0.01346 -0.119025,0.01965 -0.03993,0.0062 -0.08036,0.01193 -0.12071,0.0174 -0.04035,0.0055 -0.08052,0.01096 -0.12127,0.01572 -0.04075,0.0048 -0.08181,0.0089 -0.122955,0.01291 -0.04115,0.004 -0.08255,0.0079 -0.124078,0.01123 -0.08306,0.0067 -0.166991,0.01191 -0.251524,0.01572 -0.08453,0.0038 -0.169528,0.0063 -0.255455,0.0073 -0.04115,4.71e-4 -0.08258,6.1e-5 -0.123516,-5.61e-4 -0.04094,-6.23e-4 -0.08169,-0.0017 -0.122394,-0.0034 -0.04071,-0.0017 -0.08136,-0.004 -0.121833,-0.0067 -0.04047,-0.0028 -0.08049,-0.0063 -0.120709,-0.01011 -0.04022,-0.0038 -0.0802,-0.008 -0.120148,-0.01291 -0.03995,-0.0049 -0.07992,-0.01037 -0.119586,-0.01628 -0.03967,-0.0059 -0.07909,-0.01215 -0.118464,-0.01909 -0.03938,-0.0069 -0.07883,-0.01451 -0.117902,-0.02246 -0.03907,-0.0079 -0.07803,-0.01632 -0.116779,-0.02526 -0.03875,-0.0089 -0.07724,-0.01814 -0.115657,-0.02807 -0.03842,-0.0099 -0.07646,-0.02053 -0.114533,-0.03144 -0.03807,-0.01091 -0.07626,-0.02238 -0.113972,-0.03425 -0.03771,-0.01187 -0.07495,-0.02423 -0.112288,-0.03706 -0.03734,-0.01282 -0.07478,-0.0261 -0.111726,-0.03986 -0.03695,-0.01376 -0.07349,-0.02798 -0.110041,-0.04267 -0.03655,-0.01469 -0.07278,-0.02987 -0.10892,-0.04548 -0.03614,-0.0156 -0.07209,-0.03178 -0.107797,-0.04828 -0.03571,-0.01651 -0.0714,-0.03313 -0.106673,-0.05053 -0.03527,-0.0174 -0.07017,-0.03562 -0.104989,-0.0539 -0.03482,-0.01828 -0.06952,-0.037 -0.103866,-0.05614 -0.03435,-0.01915 -0.06831,-0.03839 -0.102182,-0.05839 -0.03387,-0.02 -0.06768,-0.04035 -0.101059,-0.0612 -0.03338,-0.02085 -0.0665,-0.04232 -0.09937,-0.064 -0.03287,-0.02168 -0.06534,-0.04375 -0.09769,-0.06625 -0.03235,-0.0225 -0.06475,-0.04519 -0.09657,-0.0685 -0.03182,-0.02331 -0.06305,-0.0472 -0.09432,-0.0713 -0.03127,-0.02411 -0.06249,-0.04866 -0.0932,-0.07355 -0.03071,-0.02489 -0.06082,-0.05013 -0.09095,-0.07579 -0.03014,-0.02566 -0.06028,-0.05161 -0.08983,-0.07804 -0.01799,-0.01609 -0.03557,-0.03248 -0.05334,-0.04885 z"
     sodipodi:nodetypes="ccccsssscscssssscsssccccccccccsccsssccccccsscscsssssscsssssssssssssssssssssscscsssccscccccccccsssccccccccsscsscssssssssssssscc" /><path
     id="path2029"
     style="fill:#ffffff;fill-opacity:1;stroke:none;stroke-width:0.31566px;stroke-linecap:butt;stroke-linejoin:miter;stroke-opacity:1"
     d="m 24.462087,31.71122 c 0.01777,0.01637 0.03535,0.03276 0.05334,0.04885 0.02955,0.02643 0.05969,0.05238 0.08983,0.07804 0.03014,0.02566 0.06024,0.0509 0.09095,0.07579 0.03071,0.02489 0.06193,0.04944 0.0932,0.07355 0.03127,0.02411 0.06251,0.04799 0.09432,0.0713 0.03182,0.02331 0.06422,0.046 0.09657,0.0685 0.03235,0.0225 0.06482,0.04457 0.09769,0.06625 0.03287,0.02168 0.066,0.04316 0.09937,0.064 0.03338,0.02085 0.06719,0.04119 0.101059,0.0612 0.03387,0.02 0.06783,0.03924 0.102182,0.05839 0.03435,0.01915 0.06905,0.03786 0.103866,0.05614 0.03482,0.01828 0.06972,0.0365 0.104989,0.0539 0.03527,0.0174 0.07096,0.03402 0.106673,0.05053 0.03571,0.01651 0.07166,0.03268 0.107797,0.04828 0.03614,0.0156 0.07237,0.03079 0.10892,0.04548 0.03655,0.01469 0.07309,0.02891 0.110041,0.04267 0.03695,0.01376 0.07439,0.02704 0.111726,0.03986 0.03734,0.01282 0.07458,0.02519 0.112288,0.03706 0.03771,0.01187 0.0759,0.02334 0.113972,0.03425 0.03807,0.01091 0.07612,0.02151 0.114533,0.03144 0.03842,0.0099 0.07691,0.01913 0.115657,0.02807 0.03875,0.0089 0.07771,0.01732 0.116779,0.02526 0.03907,0.0079 0.07853,0.01552 0.117902,0.02246 0.03938,0.0069 0.07879,0.01318 0.118464,0.01909 0.03967,0.0059 0.07964,0.0114 0.119586,0.01628 0.03995,0.0049 0.07993,0.0091 0.120148,0.01291 0.04022,0.0038 0.08024,0.0073 0.120709,0.01011 0.04047,0.0028 0.08112,0.005 0.121833,0.0067 0.04071,0.0017 0.08146,0.0027 0.122394,0.0034 0.04093,6.22e-4 0.08237,10e-4 0.123516,5.61e-4 0.08593,-9.84e-4 0.170921,-0.0035 0.255455,-0.0073 0.08453,-0.0038 0.168465,-0.0091 0.251524,-0.01572 0.04153,-0.0033 0.08293,-0.0072 0.124078,-0.01123 0.04115,-0.004 0.0822,-0.0082 0.122955,-0.01291 0.04075,-0.0048 0.08092,-0.01024 0.12127,-0.01572 0.04035,-0.0055 0.08078,-0.01121 0.12071,-0.0174 0.03993,-0.0062 0.07951,-0.01273 0.119025,-0.01965 0.03951,-0.0069 0.07883,-0.01425 0.117902,-0.02189 0.03908,-0.0076 0.07815,-0.01577 0.116779,-0.02414 0.03863,-0.0084 0.07692,-0.01673 0.115095,-0.02583 0.03818,-0.0091 0.07626,-0.0188 0.113972,-0.02863 0.03771,-0.0098 0.07505,-0.01975 0.112288,-0.03032 0.03724,-0.01057 0.07441,-0.02182 0.111165,-0.03312 0.03676,-0.0113 0.07322,-0.02277 0.10948,-0.03481 0.03626,-0.01204 0.07204,-0.02428 0.107797,-0.03706 0.03576,-0.01278 0.07143,-0.02634 0.106673,-0.03986 0.03524,-0.01352 0.07027,-0.02728 0.104989,-0.04155 0.03472,-0.01427 0.06912,-0.02878 0.103305,-0.04379 0.03418,-0.01502 0.06798,-0.03027 0.10162,-0.04604 0.03364,-0.01576 0.06685,-0.03233 0.09994,-0.04884 0.03309,-0.01651 0.06629,-0.03326 0.09881,-0.05053 0.03252,-0.01727 0.06462,-0.03475 0.09657,-0.05277 0.03195,-0.01802 0.06352,-0.0368 0.09488,-0.05558 0.03136,-0.01878 0.06243,-0.03773 0.0932,-0.05727 0.03077,-0.01954 0.06135,-0.03921 0.09151,-0.05951 0.03016,-0.0203 0.05972,-0.04125 0.08927,-0.06232 0.02955,-0.02107 0.05866,-0.04273 0.08759,-0.06457 0.02892,-0.02183 0.05761,-0.04365 0.0859,-0.06625 0.02829,-0.0226 0.05658,-0.04568 0.08422,-0.06906 0.02764,-0.02337 0.05499,-0.04716 0.08197,-0.0713 0.02699,-0.02415 0.0534,-0.04863 0.07972,-0.07355 0.02632,-0.02492 0.0524,-0.0501 0.07804,-0.07579 0.02565,-0.0257 0.05083,-0.05212 0.07579,-0.0786 0.02496,-0.02648 0.04985,-0.05303 0.07411,-0.08028 0.02426,-0.02726 0.0483,-0.05505 0.07186,-0.08309 0.02356,-0.02804 0.04621,-0.05651 0.06906,-0.08534 0.02284,-0.02883 0.04581,-0.05797 0.06793,-0.08758 0.02212,-0.02962 0.04374,-0.05998 0.06513,-0.09039 0.02138,-0.03041 0.04224,-0.06088 0.06288,-0.09208 0.02064,-0.0312 0.04075,-0.06289 0.06064,-0.09488 0.01988,-0.03199 0.03984,-0.06434 0.05895,-0.09713 0.01912,-0.03279 0.0378,-0.06579 0.05614,-0.09938 0.01834,-0.03359 0.03634,-0.06779 0.0539,-0.102182 0.01756,-0.03439 0.03433,-0.06923 0.05109,-0.104427 0.01676,-0.0352 0.03345,-0.07067 0.04941,-0.106673 0.01595,-0.036 0.03146,-0.07267 0.0466,-0.109481 0.01514,-0.03681 0.02948,-0.07411 0.04379,-0.111726 0.01431,-0.03762 0.02863,-0.07554 0.04211,-0.113972 0.01347,-0.03843 0.02611,-0.07698 0.03874,-0.116219 0.01263,-0.03924 0.02528,-0.07897 0.03706,-0.119024 0.01177,-0.04006 0.02278,-0.08039 0.03369,-0.121271 0.01091,-0.04088 0.02141,-0.08238 0.03144,-0.124078 0.01003,-0.0417 0.01949,-0.0838 0.02863,-0.126324 0.0091,-0.04252 0.01814,-0.08522 0.02639,-0.128569 0.0082,-0.04335 0.01568,-0.0872 0.02302,-0.131377 0.0073,-0.04417 0.01435,-0.08862 0.02077,-0.133623 0.0064,-0.045 0.01247,-0.09059 0.01796,-0.136429 0.0055,-0.04584 0.0106,-0.09201 0.01516,-0.138675 0.0046,-0.04667 0.0087,-0.09398 0.01235,-0.141483 0.0036,-0.0475 0.0069,-0.09539 0.0095,-0.143728 0.0027,-0.04834 0.0045,-0.09735 0.0062,-0.146536 0.0017,-0.04918 0.0032,-0.09876 0.0039,-0.14878 -5.56e-4,-0.03431 -0.0015,-0.06841 -0.0028,-0.102744 -0.0013,-0.03433 -0.003,-0.0684 -0.0051,-0.102743 -0.0021,-0.03434 -0.0045,-0.06897 -0.0073,-0.103305 -0.0028,-0.03433 -0.0065,-0.06844 -0.01011,-0.102744 -0.0036,-0.03431 -0.0074,-0.06904 -0.01179,-0.103304 -0.0044,-0.03426 -0.0089,-0.06798 -0.01403,-0.102182 -0.0052,-0.0342 -0.01089,-0.06862 -0.01684,-0.102743 -0.0059,-0.03412 -0.01235,-0.06816 -0.01909,-0.102182 -0.0067,-0.03402 -0.01379,-0.06827 -0.02133,-0.102181 -0.0075,-0.03391 -0.01579,-0.06728 -0.02414,-0.10106 -0.0084,-0.03378 -0.01666,-0.06743 -0.02583,-0.101059 -0.0092,-0.03363 -0.01921,-0.0676 -0.0292,-0.101059 -0.01,-0.03346 -0.02007,-0.06666 -0.03088,-0.09994 -0.01081,-0.03327 -0.02204,-0.06631 -0.03369,-0.09937 -0.01164,-0.03307 -0.02401,-0.06597 -0.03649,-0.09881 -0.01248,-0.03284 -0.02541,-0.06565 -0.03874,-0.09825 -0.01332,-0.03261 -0.02681,-0.06534 -0.04099,-0.09769 -0.01417,-0.03235 -0.02876,-0.06449 -0.04379,-0.09657 -0.01503,-0.03207 -0.03071,-0.06366 -0.0466,-0.09545 -0.01589,-0.03178 -0.03209,-0.06341 -0.04885,-0.09488 -0.01676,-0.03147 -0.03402,-0.06318 -0.05165,-0.09432 -0.01763,-0.03114 -0.03538,-0.06184 -0.0539,-0.09264 -0.01852,-0.0308 -0.03787,-0.06164 -0.05727,-0.09208 -0.0194,-0.03044 -0.03922,-0.0609 -0.05951,-0.09095 -0.0203,-0.03005 -0.04113,-0.05961 -0.06232,-0.08927 -0.02119,-0.02965 -0.04247,-0.05891 -0.06456,-0.08815 -0.0221,-0.02924 -0.04493,-0.05822 -0.06794,-0.08702 -0.02301,-0.0288 -0.04625,-0.05755 -0.07018,-0.0859 -0.01128,-0.01337 -0.02276,-0.0266 -0.03425,-0.03986 -0.546315,-0.09287 -1.140047,-0.144239 -1.784252,-0.147096 -2.504376,0.01453 -5.253735,2.169746 -5.363424,5.179271 0.0055,0.409712 0.04455,0.808193 0.114534,1.193618 z"
     sodipodi:nodetypes="csssssssscssssssssssccccccccsccsccccccccscssssssccsssssssssssssssssssssssssssssscssccccccccscssscccccccccscsccsssssscssssccccc" /><g
     inkscape:label="Layer 1"
     inkscape:groupmode="layer"
     id="layer1"
     transform="translate(-15.766726,-20.093444)" /><path
     id="path2032"
     style="fill:#1a1a1a;fill-opacity:1;stroke:none;stroke-width:0.296562px;stroke-linecap:butt;stroke-linejoin:miter;stroke-opacity:1"
     d="m 69.229682,28.126503 c 0.528676,2.911601 2.923538,5.004456 5.717241,4.972455 3.27971,-0.03755 5.732341,-1.795605 5.786868,-5.614385 -0.03696,-2.27853 -1.459261,-4.622846 -4.896499,-5.207179 0.01076,0.01246 0.02158,0.02489 0.03217,0.03745 0.02248,0.02664 0.04432,0.05364 0.06593,0.0807 0.02162,0.02706 0.04307,0.05429 0.06383,0.08176 0.02076,0.02746 0.04074,0.05495 0.06066,0.08281 0.01991,0.02787 0.03948,0.05563 0.05855,0.08387 0.01907,0.02824 0.03769,0.05685 0.05592,0.08546 0.01823,0.0286 0.03641,0.05757 0.0538,0.0865 0.01739,0.02893 0.03407,0.05778 0.05064,0.08704 0.01657,0.02926 0.03279,0.05905 0.04852,0.08862 0.01575,0.02957 0.03096,0.05929 0.04589,0.08914 0.01493,0.02986 0.02966,0.05954 0.04378,0.08967 0.01411,0.03013 0.02782,0.06033 0.04114,0.09072 0.01331,0.03039 0.02599,0.06116 0.0385,0.09178 0.01252,0.03063 0.02467,0.06145 0.0364,0.0923 0.01173,0.03086 0.02335,0.06177 0.03429,0.09284 0.01094,0.03107 0.02149,0.0621 0.03165,0.09337 0.01021,0.03126 0.01963,0.06246 0.02901,0.09388 0.0093,0.03143 0.01881,0.06336 0.02742,0.09494 0.0086,0.03159 0.01642,0.06321 0.02426,0.09494 0.0078,0.03174 0.0156,0.06309 0.02269,0.09495 0.0071,0.03185 0.01371,0.06403 0.02004,0.096 0.0063,0.03196 0.01234,0.06394 0.01794,0.096 0.0056,0.03205 0.01097,0.06439 0.01582,0.09653 0.0049,0.03214 0.0091,0.06382 0.01319,0.096 0.0041,0.03219 0.0076,0.06483 0.01107,0.09705 0.0034,0.03224 0.0068,0.06427 0.0095,0.09653 0.0026,0.03226 0.0049,0.0648 0.0068,0.09705 0.002,0.03227 0.0035,0.06428 0.0048,0.09653 0.0012,0.03226 0.0022,0.0643 0.0026,0.09653 -6.71e-4,0.047 -0.0022,0.09356 -0.0037,0.139779 -0.0016,0.04621 -0.0033,0.09225 -0.0059,0.137669 -0.0025,0.04542 -0.0056,0.0904 -0.009,0.135032 -0.0034,0.04463 -0.0074,0.08908 -0.0116,0.132923 -0.0042,0.04384 -0.0091,0.08722 -0.01424,0.130285 -0.0052,0.04307 -0.01087,0.0859 -0.01688,0.128174 -0.006,0.04227 -0.01261,0.08404 -0.01951,0.125538 -0.007,0.0415 -0.01389,0.08271 -0.02163,0.123428 -0.0077,0.04073 -0.0162,0.08084 -0.02479,0.120791 -0.0086,0.03995 -0.01747,0.07951 -0.0269,0.11868 -0.0093,0.03918 -0.01929,0.07817 -0.02954,0.116571 -0.01021,0.03841 -0.02059,0.0763 -0.03165,0.113933 -0.01106,0.03763 -0.02295,0.07495 -0.03482,0.111824 -0.01186,0.03686 -0.02373,0.07308 -0.0364,0.109187 -0.01266,0.0361 -0.02611,0.07174 -0.03957,0.107081 -0.01344,0.03533 -0.02692,0.07039 -0.04114,0.104962 -0.01422,0.03458 -0.02879,0.06903 -0.04378,0.102854 -0.01498,0.03383 -0.03067,0.06715 -0.04641,0.100225 -0.01575,0.03306 -0.03151,0.0658 -0.048,0.09811 -0.01649,0.03231 -0.03341,0.06444 -0.05064,0.096 -0.01723,0.03156 -0.03479,0.06256 -0.05275,0.09337 -0.01796,0.0308 -0.0367,0.06119 -0.05539,0.09125 -0.01868,0.03006 -0.03758,0.05983 -0.05696,0.08914 -0.01938,0.02931 -0.03899,0.05794 -0.05908,0.0865 -0.02009,0.02857 -0.04041,0.0571 -0.06118,0.08493 -0.02078,0.02782 -0.04236,0.0552 -0.06383,0.08229 -0.02147,0.02707 -0.04275,0.05383 -0.06487,0.08018 -0.02214,0.02635 -0.04472,0.05245 -0.06752,0.07806 -0.02279,0.02561 -0.04617,0.05055 -0.06962,0.07543 -0.02345,0.02488 -0.04712,0.04969 -0.07121,0.07385 -0.0241,0.02414 -0.04859,0.0478 -0.07331,0.07121 -0.02473,0.02341 -0.04954,0.04641 -0.0749,0.0691 -0.02536,0.02269 -0.05104,0.04503 -0.07702,0.06699 -0.02597,0.02196 -0.05255,0.04364 -0.07912,0.06487 -0.02657,0.02123 -0.05353,0.04173 -0.0807,0.06224 -0.02717,0.02051 -0.05453,0.04087 -0.08229,0.06066 -0.02776,0.01979 -0.05553,0.03947 -0.08387,0.05855 -0.02833,0.01908 -0.05707,0.03755 -0.08597,0.05591 -0.02891,0.01836 -0.0581,0.03616 -0.08756,0.0538 -0.02946,0.01764 -0.05912,0.03529 -0.08914,0.05222 -0.03001,0.01694 -0.06017,0.03335 -0.09072,0.04959 -0.03055,0.01622 -0.06175,0.03196 -0.09284,0.04748 -0.03108,0.01551 -0.06229,0.03108 -0.09389,0.04589 -0.0316,0.01481 -0.06335,0.02914 -0.09547,0.04325 -0.03212,0.0141 -0.06444,0.02774 -0.09705,0.04114 -0.03263,0.01341 -0.06553,0.02632 -0.09863,0.03904 -0.03311,0.01271 -0.06662,0.02545 -0.100225,0.03745 -0.03359,0.01201 -0.06721,0.0235 -0.101279,0.03482 -0.03407,0.01131 -0.06833,0.02209 -0.102854,0.0327 -0.03453,0.01065 -0.06945,0.02119 -0.10444,0.03113 -0.03499,0.0099 -0.07006,0.01924 -0.105495,0.02849 -0.03543,0.0092 -0.07121,0.01835 -0.10708,0.0269 -0.03586,0.0086 -0.07184,0.0164 -0.108134,0.02426 -0.0363,0.0078 -0.073,0.01549 -0.109715,0.02268 -0.03671,0.0072 -0.07365,0.01407 -0.110767,0.02057 -0.03712,0.0065 -0.0743,0.01264 -0.111824,0.01847 -0.03753,0.0059 -0.0755,0.01121 -0.113406,0.01635 -0.03791,0.0051 -0.07565,0.01032 -0.113934,0.01476 -0.03829,0.0045 -0.07686,0.0084 -0.115516,0.01214 -0.03866,0.0038 -0.07755,0.0075 -0.116571,0.01054 -0.07803,0.0062 -0.156886,0.01119 -0.236305,0.01476 -0.07942,0.0036 -0.159271,0.0059 -0.239999,0.0068 -0.03866,4.42e-4 -0.07758,5.8e-5 -0.116043,-5.27e-4 -0.03846,-5.85e-4 -0.07674,-0.0015 -0.114989,-0.0032 -0.03824,-0.0016 -0.07644,-0.0037 -0.114461,-0.0063 -0.03803,-0.0026 -0.07563,-0.0059 -0.113406,-0.0095 -0.03779,-0.0036 -0.07534,-0.0076 -0.112879,-0.01212 -0.03754,-0.0046 -0.07508,-0.0097 -0.11235,-0.0153 -0.03727,-0.0055 -0.0743,-0.01142 -0.111297,-0.01794 -0.03699,-0.0065 -0.07406,-0.01364 -0.110768,-0.0211 -0.0367,-0.0075 -0.0733,-0.01533 -0.109713,-0.02373 -0.03641,-0.0084 -0.07256,-0.01705 -0.10866,-0.02638 -0.03609,-0.0092 -0.07184,-0.0193 -0.107602,-0.02954 -0.03577,-0.01021 -0.07164,-0.02102 -0.10708,-0.03217 -0.03543,-0.01116 -0.07042,-0.02277 -0.105495,-0.03482 -0.03508,-0.01205 -0.07026,-0.02452 -0.104962,-0.03745 -0.03471,-0.01292 -0.06904,-0.02629 -0.103386,-0.04008 -0.03433,-0.0138 -0.06838,-0.02807 -0.102333,-0.04273 -0.03395,-0.01466 -0.06773,-0.02986 -0.101279,-0.04536 -0.03355,-0.0155 -0.06708,-0.03113 -0.100225,-0.04748 -0.03314,-0.01634 -0.06593,-0.03347 -0.09864,-0.05064 -0.03271,-0.01717 -0.06531,-0.03476 -0.09758,-0.05275 -0.03228,-0.01798 -0.06419,-0.03606 -0.096,-0.05485 -0.03182,-0.0188 -0.06359,-0.03791 -0.09494,-0.05749 -0.03135,-0.01959 -0.06248,-0.03976 -0.09337,-0.06014 -0.03088,-0.02037 -0.06138,-0.0411 -0.09178,-0.06224 -0.0304,-0.02114 -0.06083,-0.04245 -0.09072,-0.06436 -0.0299,-0.02189 -0.05923,-0.04434 -0.08862,-0.06699 -0.02938,-0.02265 -0.05871,-0.04572 -0.08756,-0.0691 -0.02886,-0.02338 -0.05714,-0.0471 -0.08545,-0.07121 -0.02831,-0.02411 -0.05663,-0.04849 -0.0844,-0.07331 -0.01691,-0.01511 -0.03342,-0.03052 -0.05011,-0.04589 z"
     sodipodi:nodetypes="ccccsssssssscssssssccscscscscccccccsscsccsccsssssssssssssssssscsssssssssscssssssscccccssccccccsscssccccsccssssssssssssscsssscc" /><path
     id="path2034"
     style="fill:#ffffff;fill-opacity:1;stroke:none;stroke-width:0.296562px;stroke-linecap:butt;stroke-linejoin:miter;stroke-opacity:1"
     d="m 69.229682,28.126503 c 0.01669,0.01537 0.03321,0.03078 0.05011,0.04589 0.02776,0.02482 0.05608,0.0492 0.0844,0.07331 0.02831,0.02411 0.0566,0.04781 0.08545,0.07121 0.02886,0.02338 0.05818,0.04646 0.08756,0.0691 0.02938,0.02265 0.05872,0.04509 0.08862,0.06699 0.0299,0.02189 0.06033,0.04322 0.09072,0.06436 0.0304,0.02114 0.0609,0.04187 0.09178,0.06224 0.03088,0.02036 0.062,0.04055 0.09337,0.06012 0.03135,0.01959 0.06312,0.03871 0.09494,0.05749 0.03182,0.0188 0.06372,0.03686 0.096,0.05485 0.03228,0.01798 0.06487,0.03557 0.09758,0.05275 0.03271,0.01717 0.0655,0.03429 0.09864,0.05064 0.03314,0.01634 0.06667,0.03196 0.100225,0.04748 0.03355,0.0155 0.06733,0.0307 0.101279,0.04536 0.03395,0.01466 0.06799,0.02893 0.102333,0.04273 0.03433,0.0138 0.06866,0.02716 0.103386,0.04008 0.03471,0.01293 0.06989,0.0254 0.104962,0.03745 0.03508,0.01205 0.07006,0.02366 0.105494,0.03482 0.03543,0.01115 0.0713,0.02192 0.107081,0.03217 0.03577,0.01021 0.07151,0.02021 0.107602,0.02954 0.03609,0.0092 0.07226,0.01797 0.108659,0.02638 0.03641,0.0084 0.07301,0.01626 0.109713,0.02373 0.0367,0.0075 0.07378,0.01459 0.110769,0.0211 0.03699,0.0065 0.07402,0.01238 0.111296,0.01794 0.03727,0.0055 0.07482,0.01076 0.112351,0.0153 0.03753,0.0046 0.0751,0.0086 0.112879,0.01212 0.03779,0.0036 0.07538,0.0068 0.113405,0.0095 0.03803,0.0026 0.07621,0.0047 0.114462,0.0063 0.03824,0.0016 0.07653,0.0025 0.114988,0.0032 0.03846,5.85e-4 0.07738,9.71e-4 0.116043,5.28e-4 0.08072,-9.24e-4 0.160581,-0.0033 0.239999,-0.0068 0.07942,-0.0036 0.158272,-0.0085 0.236306,-0.01477 0.03903,-0.0032 0.07791,-0.0067 0.116571,-0.01054 0.03866,-0.0038 0.07722,-0.0076 0.115516,-0.01214 0.03829,-0.0045 0.07602,-0.0096 0.113932,-0.01478 0.03791,-0.0051 0.07589,-0.01054 0.113407,-0.01635 0.03753,-0.0059 0.0747,-0.01196 0.111823,-0.01846 0.03712,-0.0065 0.07405,-0.0134 0.110768,-0.02057 0.03671,-0.0072 0.07342,-0.01482 0.109714,-0.02268 0.0363,-0.0078 0.07227,-0.01571 0.108135,-0.02426 0.03586,-0.0086 0.07164,-0.01765 0.10708,-0.0269 0.03543,-0.0092 0.07051,-0.01856 0.105495,-0.02849 0.03499,-0.0099 0.06991,-0.02051 0.10444,-0.03113 0.03453,-0.01065 0.06878,-0.02139 0.102854,-0.0327 0.03407,-0.01131 0.06769,-0.02281 0.101279,-0.03482 0.03359,-0.012 0.06711,-0.02474 0.100225,-0.03745 0.03311,-0.01271 0.06602,-0.02563 0.09863,-0.03904 0.03263,-0.01341 0.06494,-0.02704 0.09705,-0.04114 0.03212,-0.0141 0.06386,-0.02844 0.09547,-0.04325 0.0316,-0.01481 0.06281,-0.03038 0.09389,-0.04589 0.03108,-0.01551 0.06229,-0.03126 0.09284,-0.04748 0.03055,-0.01622 0.06071,-0.03265 0.09072,-0.04959 0.03001,-0.01694 0.05968,-0.03457 0.08914,-0.05222 0.02947,-0.01764 0.05865,-0.03544 0.08756,-0.0538 0.02891,-0.01836 0.05764,-0.03684 0.08597,-0.05592 0.02833,-0.01908 0.0561,-0.03875 0.08387,-0.05855 0.02776,-0.01979 0.05512,-0.04014 0.08229,-0.06067 0.02717,-0.02051 0.05413,-0.04101 0.0807,-0.06224 0.02658,-0.02123 0.05315,-0.04293 0.07912,-0.06487 0.02597,-0.02196 0.05166,-0.04431 0.07702,-0.06699 0.02536,-0.02268 0.05017,-0.04568 0.0749,-0.0691 0.02473,-0.02341 0.04923,-0.04706 0.07331,-0.07121 0.0241,-0.02414 0.04776,-0.04898 0.07121,-0.07385 0.02345,-0.02488 0.04683,-0.04982 0.06962,-0.07543 0.02279,-0.02561 0.04538,-0.05171 0.06752,-0.07806 0.02214,-0.02635 0.04342,-0.05308 0.06487,-0.08018 0.02147,-0.02708 0.04305,-0.05446 0.06383,-0.08229 0.02078,-0.02782 0.04109,-0.05635 0.06118,-0.08493 0.02009,-0.02857 0.03969,-0.05719 0.05908,-0.0865 0.01939,-0.02931 0.03829,-0.05908 0.05696,-0.08914 0.01868,-0.03006 0.03742,-0.06045 0.05539,-0.09125 0.01796,-0.0308 0.03552,-0.06181 0.05275,-0.09336 0.01723,-0.03156 0.03415,-0.06369 0.05064,-0.096 0.01649,-0.0323 0.03226,-0.06504 0.048,-0.09811 0.01574,-0.03306 0.03143,-0.06639 0.04641,-0.100225 0.01498,-0.03381 0.02956,-0.06827 0.04378,-0.102854 0.01422,-0.03458 0.0277,-0.06962 0.04114,-0.104962 0.01344,-0.03533 0.0269,-0.07097 0.03957,-0.107081 0.01266,-0.0361 0.02453,-0.07231 0.0364,-0.109186 0.01186,-0.03686 0.02375,-0.07418 0.03482,-0.111824 0.01106,-0.03763 0.0214,-0.07553 0.03165,-0.113932 0.01021,-0.0384 0.02012,-0.07739 0.02954,-0.116572 0.0093,-0.03918 0.01832,-0.07872 0.0269,-0.118681 0.0086,-0.03995 0.01705,-0.08006 0.02479,-0.12079 0.0077,-0.04073 0.01473,-0.08192 0.02163,-0.123427 0.007,-0.0415 0.01348,-0.08325 0.01951,-0.125539 0.006,-0.04227 0.01171,-0.08511 0.01688,-0.128174 0.0052,-0.04307 0.01,-0.08645 0.01424,-0.130286 0.0042,-0.04385 0.0081,-0.08829 0.0116,-0.132922 0.0034,-0.04462 0.0064,-0.08961 0.009,-0.135031 0.0025,-0.04543 0.0042,-0.09147 0.0059,-0.137671 0.0016,-0.04621 0.003,-0.09278 0.0037,-0.139778 -5.23e-4,-0.03224 -0.0014,-0.06427 -0.0026,-0.09653 -0.0012,-0.03226 -0.0027,-0.06426 -0.0048,-0.09653 -0.002,-0.03227 -0.0042,-0.0648 -0.0068,-0.09705 -0.0026,-0.03226 -0.0061,-0.0643 -0.0095,-0.09653 -0.0034,-0.03224 -0.007,-0.06487 -0.01107,-0.09705 -0.0041,-0.03219 -0.0084,-0.06386 -0.01319,-0.096 -0.0049,-0.03214 -0.01021,-0.06447 -0.01582,-0.09653 -0.0057,-0.03206 -0.01159,-0.06404 -0.01794,-0.096 -0.0063,-0.03196 -0.01295,-0.06414 -0.02004,-0.096 -0.0071,-0.03186 -0.01483,-0.06321 -0.02268,-0.09494 -0.0078,-0.03174 -0.01564,-0.06335 -0.02426,-0.09494 -0.0086,-0.03159 -0.01805,-0.06351 -0.02742,-0.09494 -0.0093,-0.03143 -0.01885,-0.06263 -0.02901,-0.09388 -0.01021,-0.03126 -0.02071,-0.0623 -0.03165,-0.09337 -0.01094,-0.03107 -0.02255,-0.06198 -0.03429,-0.09284 -0.01173,-0.03086 -0.02388,-0.06167 -0.0364,-0.09231 -0.01252,-0.03064 -0.02519,-0.06138 -0.0385,-0.09178 -0.01332,-0.03039 -0.02702,-0.06059 -0.04114,-0.09072 -0.01411,-0.03013 -0.02885,-0.05981 -0.04378,-0.08968 -0.01494,-0.02986 -0.03014,-0.05958 -0.04589,-0.08914 -0.01575,-0.02957 -0.03196,-0.05935 -0.04852,-0.08862 -0.01657,-0.02927 -0.03324,-0.0581 -0.05064,-0.08704 -0.01739,-0.02893 -0.03557,-0.05792 -0.0538,-0.0865 -0.01823,-0.0286 -0.03685,-0.05721 -0.05592,-0.08545 -0.01907,-0.02824 -0.03863,-0.05601 -0.05855,-0.08387 -0.01991,-0.02786 -0.03991,-0.05534 -0.06066,-0.08281 -0.02076,-0.02746 -0.04221,-0.0547 -0.06383,-0.08176 -0.02162,-0.02706 -0.04345,-0.05407 -0.06593,-0.0807 -0.01065,-0.01256 -0.02138,-0.02499 -0.03217,-0.03745 -0.513261,-0.08725 -1.071069,-0.135512 -1.676298,-0.138196 -2.35285,0.01366 -4.935863,2.038467 -5.038915,4.865904 0.0052,0.384924 0.04185,0.759295 0.107602,1.1214 z"
     inkscape:export-filename=".\favi3.svg"
     inkscape:export-xdpi="276.24"
     inkscape:export-ydpi="276.24"
     sodipodi:nodetypes="csscssssccssscsssssccscsccccscsccccccsccccccsssssssssssssssssscssscssssssssssssssccccccccccccscssccccsccccsssssssssssssscccccc" /></svg>
